<svg width="14" height="18" viewBox="0 0 14 18" fill="none" xmlns="http://www.w3.org/2000/svg">
<path d="M6.69535 0.315899C6.79368 0.165842 7.01208 0.167048 7.1105 0.317041C7.83542 1.42174 10.2731 5.13813 11.5162 7.05273C12.3207 8.29166 12.8194 9.638 12.7925 11.183C12.7289 14.8315 9.82042 17.32 7.10455 17.3166C5.29264 17.3141 3.77333 16.7109 2.54811 15.2921C0.823932 13.2955 0.504418 10.4026 1.76877 7.98311C2.2428 7.07591 2.84046 6.24348 3.3925 5.38463C4.29045 3.98819 6.08678 1.24459 6.69535 0.315899Z" stroke="#9897AD" stroke-width="1.4"/>
<path fill-rule="evenodd" clip-rule="evenodd" d="M4.31692 9.13318C3.89554 10.019 3.58896 10.7773 3.78614 11.7917C3.88125 12.281 4.12189 12.7266 4.48218 13.0806C4.65141 13.2469 4.64644 13.516 4.47108 13.6815C4.40651 13.7423 4.32788 13.7807 4.24595 13.7967C4.10482 13.8241 3.95386 13.7852 3.84693 13.6799C3.3662 13.2077 3.04505 12.6129 2.91821 11.9604C2.67372 10.7026 3.04383 9.78002 3.5151 8.78939C3.61734 8.57484 3.87945 8.47756 4.10078 8.57267C4.32225 8.66759 4.41898 8.91867 4.31692 9.13318Z" fill="#9897AD" stroke="#9897AD" stroke-width="0.5"/>
</svg>
