<svg width="19" height="30" viewBox="0 0 19 30" fill="none" xmlns="http://www.w3.org/2000/svg">
<path fill-rule="evenodd" clip-rule="evenodd" d="M1.2575 11.9816H17.757C17.9602 11.9816 18.1198 11.822 18.1198 11.6188V2.86114C18.1198 1.89613 17.329 1.10526 16.3639 1.10526H2.6506C1.68559 1.10526 0.894714 1.89613 0.894714 2.86114V11.6188C0.894714 11.822 1.05434 11.9816 1.2575 11.9816ZM17.3943 11.256H1.62029V2.86114C1.62029 2.2952 2.08466 1.83083 2.6506 1.83083H16.3639C16.9299 1.83083 17.3943 2.2952 17.3943 2.86114V11.256Z" fill="black"/>
<path d="M1.62029 11.256H1.27292V11.6034H1.62029V11.256ZM17.3943 11.256V11.6034H17.7416V11.256H17.3943ZM17.757 11.6342H1.2575V12.329H17.757V11.6342ZM17.7725 11.6188C17.7725 11.6237 17.7716 11.6264 17.7711 11.6276C17.7705 11.629 17.7698 11.63 17.769 11.6308C17.7682 11.6315 17.7672 11.6323 17.7658 11.6328C17.7646 11.6333 17.762 11.6342 17.757 11.6342V12.329C18.1521 12.329 18.4672 12.0138 18.4672 11.6188H17.7725ZM17.7725 2.86114V11.6188H18.4672V2.86114H17.7725ZM16.3639 1.45262C17.1371 1.45262 17.7725 2.08798 17.7725 2.86114H18.4672C18.4672 1.70428 17.5208 0.757887 16.3639 0.757887V1.45262ZM2.6506 1.45262H16.3639V0.757887H2.6506V1.45262ZM1.24208 2.86114C1.24208 2.08798 1.87744 1.45262 2.6506 1.45262V0.757887C1.49374 0.757887 0.547346 1.70428 0.547346 2.86114H1.24208ZM1.24208 11.6188V2.86114H0.547346V11.6188H1.24208ZM1.2575 11.6342C1.25257 11.6342 1.24991 11.6333 1.24871 11.6328C1.24733 11.6323 1.24632 11.6315 1.24555 11.6308C1.24478 11.63 1.24405 11.629 1.24348 11.6276C1.24298 11.6264 1.24208 11.6237 1.24208 11.6188H0.547346C0.547346 12.0138 0.862494 12.329 1.2575 12.329V11.6342ZM1.62029 11.6034H17.3943V10.9087H1.62029V11.6034ZM1.27292 2.86114V11.256H1.96766V2.86114H1.27292ZM2.6506 1.48346C1.89281 1.48346 1.27292 2.10335 1.27292 2.86114H1.96766C1.96766 2.48704 2.2765 2.1782 2.6506 2.1782V1.48346ZM16.3639 1.48346H2.6506V2.1782H16.3639V1.48346ZM17.7416 2.86114C17.7416 2.10335 17.1217 1.48346 16.3639 1.48346V2.1782C16.738 2.1782 17.0469 2.48704 17.0469 2.86114H17.7416ZM17.7416 11.256V2.86114H17.0469V11.256H17.7416Z" fill="black"/>
<path fill-rule="evenodd" clip-rule="evenodd" d="M1.2575 11.5263H17.757C17.9602 11.5263 18.1198 11.6859 18.1198 11.8891V27.3946C18.1198 28.3596 17.329 29.1505 16.3639 29.1505H2.6506C1.68559 29.1505 0.894714 28.3596 0.894714 27.3946V11.8891C0.894714 11.6859 1.05434 11.5263 1.2575 11.5263ZM17.3943 12.2519H1.62029V27.3946C1.62029 27.9605 2.08466 28.4249 2.6506 28.4249H16.3639C16.9299 28.4249 17.3943 27.9605 17.3943 27.3946V12.2519Z" fill="black"/>
<path d="M1.62029 12.2519H1.27292V11.9045H1.62029V12.2519ZM17.3943 12.2519V11.9045H17.7416V12.2519H17.3943ZM17.757 11.8737H1.2575V11.1789H17.757V11.8737ZM17.7725 11.8891C17.7725 11.8842 17.7716 11.8815 17.7711 11.8803C17.7705 11.8789 17.7698 11.8779 17.769 11.8771C17.7682 11.8764 17.7672 11.8756 17.7658 11.8751C17.7646 11.8746 17.762 11.8737 17.757 11.8737V11.1789C18.1521 11.1789 18.4672 11.4941 18.4672 11.8891H17.7725ZM17.7725 27.3946V11.8891H18.4672V27.3946H17.7725ZM16.3639 28.8031C17.1371 28.8031 17.7725 28.1678 17.7725 27.3946H18.4672C18.4672 28.5515 17.5208 29.4979 16.3639 29.4979V28.8031ZM2.6506 28.8031H16.3639V29.4979H2.6506V28.8031ZM1.24208 27.3946C1.24208 28.1678 1.87744 28.8031 2.6506 28.8031V29.4979C1.49374 29.4979 0.547346 28.5515 0.547346 27.3946H1.24208ZM1.24208 11.8891V27.3946H0.547346V11.8891H1.24208ZM1.2575 11.8737C1.25257 11.8737 1.24991 11.8746 1.24871 11.8751C1.24733 11.8756 1.24632 11.8764 1.24555 11.8771C1.24477 11.8779 1.24405 11.8789 1.24348 11.8803C1.24298 11.8815 1.24208 11.8842 1.24208 11.8891H0.547346C0.547346 11.4941 0.862494 11.1789 1.2575 11.1789V11.8737ZM1.62029 11.9045H17.3943V12.5992H1.62029V11.9045ZM1.27292 27.3946V12.2519H1.96766V27.3946H1.27292ZM2.6506 28.7723C1.89281 28.7723 1.27292 28.1524 1.27292 27.3946H1.96766C1.96766 27.7687 2.2765 28.0775 2.6506 28.0775V28.7723ZM16.3639 28.7723H2.6506V28.0775H16.3639V28.7723ZM17.7416 27.3946C17.7416 28.1524 17.1217 28.7723 16.3639 28.7723V28.0775C16.738 28.0775 17.0469 27.7687 17.0469 27.3946H17.7416ZM17.7416 12.2519V27.3946H17.0469V12.2519H17.7416Z" fill="black"/>
<path d="M4.56606 8.91253H4.3629C3.86225 8.91253 3.45593 8.5062 3.45593 8.00556V5.87303C3.45593 5.37239 3.86225 4.96606 4.3629 4.96606H4.56606C5.06671 4.96606 5.47303 5.37239 5.47303 5.87303V8.00556C5.47303 8.5062 5.06671 8.91253 4.56606 8.91253Z" fill="black"/>
<path d="M4.56606 19.5211H4.3629C3.86225 19.5211 3.45593 19.1147 3.45593 18.6141V15.0957C3.45593 14.5951 3.86225 14.1888 4.3629 14.1888H4.56606C5.06671 14.1888 5.47303 14.5951 5.47303 15.0957V18.6141C5.47303 19.1147 5.06671 19.5211 4.56606 19.5211Z" fill="black"/>
</svg>
