<svg version="1.1" xmlns="http://www.w3.org/2000/svg" xmlns:xlink="http://www.w3.org/1999/xlink" width="48" height="48" viewBox="0,0,256,256"><g transform="translate(43.52,43.52) scale(0.66,0.66)"><g fill="none" fill-rule="nonzero" stroke="none" stroke-width="1" stroke-linecap="butt" stroke-linejoin="miter" stroke-miterlimit="10" stroke-dasharray="" stroke-dashoffset="0" font-family="none" font-weight="none" font-size="none" text-anchor="none" style="mix-blend-mode: normal"><g transform="scale(5.33333,5.33333)"><path d="M0,0h48v48h-48z" fill="none"></path><path d="M22,34h4v-12h-4zM24,4c-11.05,0 -20,8.95 -20,20c0,11.05 8.95,20 20,20c11.05,0 20,-8.95 20,-20c0,-11.05 -8.95,-20 -20,-20zM24,40c-8.82,0 -16,-7.18 -16,-16c0,-8.82 7.18,-16 16,-16c8.82,0 16,7.18 16,16c0,8.82 -7.18,16 -16,16zM22,18h4v-4h-4z" fill="#000000"></path></g></g></g></svg>